<svg width="22" height="15" viewBox="0 0 22 15" fill="none" xmlns="http://www.w3.org/2000/svg">
<g clip-path="url(#clip0_116_6163)">
<path d="M0.233333 2C0.233333 1.30044 0.800439 0.733333 1.5 0.733333H20.5C21.1996 0.733333 21.7667 1.30044 21.7667 2V3C21.7667 3.69956 21.1996 4.26667 20.5 4.26667H1.5C0.800439 4.26667 0.233333 3.69956 0.233333 3V2Z" stroke="#ACAFBF" stroke-width="0.466667"/>
<path d="M0.233333 7C0.233333 6.30044 0.800439 5.73333 1.5 5.73333H20.5C21.1996 5.73333 21.7667 6.30044 21.7667 7V8C21.7667 8.69956 21.1996 9.26667 20.5 9.26667H1.5C0.800439 9.26667 0.233333 8.69956 0.233333 8V7Z" stroke="#ACAFBF" stroke-width="0.466667"/>
<path d="M0.233333 12C0.233333 11.3004 0.800439 10.7333 1.5 10.7333H20.5C21.1996 10.7333 21.7667 11.3004 21.7667 12V13C21.7667 13.6996 21.1996 14.2667 20.5 14.2667H1.5C0.800439 14.2667 0.233333 13.6996 0.233333 13V12Z" stroke="#ACAFBF" stroke-width="0.466667"/>
</g>
<defs>
<clipPath id="clip0_116_6163">
<rect width="22" height="14" fill="white" transform="translate(0 0.5)"/>
</clipPath>
</defs>
</svg>
