<svg width="22" height="15" viewBox="0 0 22 15" fill="none" xmlns="http://www.w3.org/2000/svg">
<g clip-path="url(#clip0_116_6204)">
<path d="M0.233333 2.05556C0.233333 1.32531 0.825313 0.733333 1.55556 0.733333H5.11444C5.84469 0.733333 6.43667 1.32531 6.43667 2.05556V12.9444C6.43667 13.6747 5.84469 14.2667 5.11444 14.2667H1.55556C0.825313 14.2667 0.233333 13.6747 0.233333 12.9444V2.05556Z" stroke="#ACAFBF" stroke-width="0.466667"/>
<path d="M7.90326 2.05556C7.90326 1.32531 8.49523 0.733333 9.22548 0.733333H12.7844C13.5146 0.733333 14.1066 1.32531 14.1066 2.05556V12.9444C14.1066 13.6747 13.5146 14.2667 12.7844 14.2667H9.22548C8.49523 14.2667 7.90326 13.6747 7.90326 12.9444V2.05556Z" stroke="#ACAFBF" stroke-width="0.466667"/>
<path d="M15.5732 2.05556C15.5732 1.32531 16.1652 0.733333 16.8954 0.733333H20.4543C21.1845 0.733333 21.7765 1.32531 21.7765 2.05556V12.9444C21.7765 13.6747 21.1845 14.2667 20.4543 14.2667H16.8954C16.1652 14.2667 15.5732 13.6747 15.5732 12.9444V2.05556Z" stroke="#ACAFBF" stroke-width="0.466667"/>
</g>
<defs>
<clipPath id="clip0_116_6204">
<rect width="22" height="14" fill="white" transform="translate(0 0.5)"/>
</clipPath>
</defs>
</svg>
