<svg width="193" height="60" viewBox="0 0 193 60" fill="none" xmlns="http://www.w3.org/2000/svg">
  <rect width="192" height="60" transform="translate(0.0126953)" fill="#303240" />
  <path fill-rule="evenodd" clip-rule="evenodd" d="M49.5127 30.75V37.5L36.0127 45L22.5127 37.5V30.75L25.8877 32.55V35.5142L36.0127 41.1392L46.1377 35.514V32.55L49.5127 30.75ZM36.0127 24L41.6377 27V33L36.0127 36L30.3877 33V27L36.0127 24ZM36.0127 15L49.5127 22.5V27L46.1377 28.8V24.4858L36.0127 18.8606L25.8877 24.4856V28.8L22.5127 27V22.5L36.0127 15Z" fill="white" />
  <path d="M61.7557 30V16.266H66.1447C66.8587 16.266 67.5097 16.329 68.0977 16.455C68.6997 16.567 69.2177 16.756 69.6517 17.022C70.0997 17.274 70.4427 17.617 70.6807 18.051C70.9327 18.485 71.0587 19.017 71.0587 19.647C71.0587 20.305 70.8907 20.914 70.5547 21.474C70.2187 22.034 69.7497 22.419 69.1477 22.629V22.713C69.9037 22.881 70.5267 23.238 71.0167 23.784C71.5207 24.316 71.7727 25.044 71.7727 25.968C71.7727 26.654 71.6397 27.249 71.3737 27.753C71.1077 28.257 70.7367 28.677 70.2607 29.013C69.7987 29.349 69.2457 29.601 68.6017 29.769C67.9577 29.923 67.2577 30 66.5017 30H61.7557ZM64.1917 21.936H65.9347C66.9007 21.936 67.5937 21.761 68.0137 21.411C68.4477 21.061 68.6647 20.592 68.6647 20.004C68.6647 19.332 68.4407 18.856 67.9927 18.576C67.5447 18.296 66.8727 18.156 65.9767 18.156H64.1917V21.936ZM64.1917 28.11H66.2497C67.2577 28.11 68.0347 27.928 68.5807 27.564C69.1267 27.186 69.3997 26.612 69.3997 25.842C69.3997 25.114 69.1337 24.589 68.6017 24.267C68.0697 23.931 67.2857 23.763 66.2497 23.763H64.1917V28.11ZM77.1 22.692L76.617 24.372H80.124L79.641 22.692C79.417 21.964 79.2 21.215 78.99 20.445C78.794 19.675 78.598 18.912 78.402 18.156H78.318C78.122 18.926 77.926 19.696 77.73 20.466C77.534 21.222 77.324 21.964 77.1 22.692ZM72.501 30L76.974 16.266H79.83L84.303 30H81.741L80.67 26.283H76.05L74.979 30H72.501ZM85.9959 30V16.266H89.6709C91.7709 16.266 93.4089 16.833 94.5849 17.967C95.7609 19.101 96.3489 20.802 96.3489 23.07C96.3489 24.204 96.1949 25.205 95.8869 26.073C95.5929 26.941 95.1589 27.669 94.5849 28.257C94.0249 28.831 93.3389 29.265 92.5269 29.559C91.7289 29.853 90.8189 30 89.7969 30H85.9959ZM88.4319 28.026H89.5029C90.9029 28.026 91.9739 27.627 92.7159 26.829C93.4719 26.017 93.8499 24.764 93.8499 23.07C93.8499 21.39 93.4719 20.165 92.7159 19.395C91.9599 18.625 90.8889 18.24 89.5029 18.24H88.4319V28.026ZM104.875 30.252C103.951 30.252 103.09 30.098 102.292 29.79C101.508 29.482 100.822 29.027 100.234 28.425C99.6599 27.823 99.2119 27.081 98.8899 26.199C98.5679 25.317 98.4069 24.309 98.4069 23.175C98.4069 22.055 98.5749 21.054 98.9109 20.172C99.2469 19.276 99.7019 18.52 100.276 17.904C100.864 17.288 101.55 16.819 102.334 16.497C103.132 16.175 103.986 16.014 104.896 16.014C105.876 16.014 106.702 16.196 107.374 16.56C108.06 16.91 108.62 17.309 109.054 17.757L107.752 19.332C107.402 18.996 107.01 18.716 106.576 18.492C106.156 18.254 105.624 18.135 104.98 18.135C104.364 18.135 103.804 18.254 103.3 18.492C102.81 18.716 102.383 19.045 102.019 19.479C101.669 19.899 101.396 20.417 101.2 21.033C101.004 21.649 100.906 22.342 100.906 23.112C100.906 24.68 101.256 25.912 101.956 26.808C102.67 27.69 103.72 28.131 105.106 28.131C105.498 28.131 105.869 28.082 106.219 27.984C106.569 27.872 106.856 27.718 107.08 27.522V24.561H104.476V22.566H109.264V28.614C108.802 29.076 108.186 29.468 107.416 29.79C106.66 30.098 105.813 30.252 104.875 30.252ZM112.307 30V16.266H120.581V18.324H114.743V21.831H119.678V23.889H114.743V27.942H120.791V30H112.307ZM123.607 30V16.266H128.248C128.962 16.266 129.627 16.336 130.243 16.476C130.859 16.616 131.391 16.847 131.839 17.169C132.287 17.477 132.637 17.89 132.889 18.408C133.155 18.926 133.288 19.57 133.288 20.34C133.288 21.39 133.036 22.237 132.532 22.881C132.042 23.525 131.384 23.987 130.558 24.267L133.834 30H131.104L128.143 24.624H126.043V30H123.607ZM126.043 22.692H127.996C128.934 22.692 129.648 22.496 130.138 22.104C130.642 21.712 130.894 21.124 130.894 20.34C130.894 19.542 130.642 18.989 130.138 18.681C129.648 18.373 128.934 18.219 127.996 18.219H126.043V22.692ZM136.035 30V16.266H139.71C141.81 16.266 143.448 16.833 144.624 17.967C145.8 19.101 146.388 20.802 146.388 23.07C146.388 24.204 146.234 25.205 145.926 26.073C145.632 26.941 145.198 27.669 144.624 28.257C144.064 28.831 143.378 29.265 142.566 29.559C141.768 29.853 140.858 30 139.836 30H136.035ZM138.471 28.026H139.542C140.942 28.026 142.013 27.627 142.755 26.829C143.511 26.017 143.889 24.764 143.889 23.07C143.889 21.39 143.511 20.165 142.755 19.395C141.999 18.625 140.928 18.24 139.542 18.24H138.471V28.026ZM154.494 30.252C153.598 30.252 152.779 30.091 152.037 29.769C151.295 29.433 150.658 28.957 150.126 28.341C149.594 27.711 149.181 26.955 148.887 26.073C148.593 25.191 148.446 24.19 148.446 23.07C148.446 21.964 148.593 20.977 148.887 20.109C149.181 19.227 149.594 18.485 150.126 17.883C150.658 17.281 151.295 16.819 152.037 16.497C152.779 16.175 153.598 16.014 154.494 16.014C155.39 16.014 156.209 16.175 156.951 16.497C157.693 16.819 158.33 17.281 158.862 17.883C159.408 18.485 159.828 19.227 160.122 20.109C160.416 20.977 160.563 21.964 160.563 23.07C160.563 24.19 160.416 25.191 160.122 26.073C159.828 26.955 159.408 27.711 158.862 28.341C158.33 28.957 157.693 29.433 156.951 29.769C156.209 30.091 155.39 30.252 154.494 30.252ZM154.494 28.131C155.04 28.131 155.53 28.012 155.964 27.774C156.398 27.536 156.769 27.2 157.077 26.766C157.385 26.318 157.623 25.786 157.791 25.17C157.959 24.54 158.043 23.84 158.043 23.07C158.043 21.53 157.721 20.326 157.077 19.458C156.447 18.576 155.586 18.135 154.494 18.135C153.402 18.135 152.534 18.576 151.89 19.458C151.26 20.326 150.945 21.53 150.945 23.07C150.945 23.84 151.029 24.54 151.197 25.17C151.365 25.786 151.603 26.318 151.911 26.766C152.219 27.2 152.59 27.536 153.024 27.774C153.458 28.012 153.948 28.131 154.494 28.131ZM168.791 30.252C167.923 30.252 167.111 30.098 166.355 29.79C165.599 29.482 164.941 29.027 164.381 28.425C163.835 27.823 163.401 27.081 163.079 26.199C162.757 25.317 162.596 24.309 162.596 23.175C162.596 22.055 162.757 21.054 163.079 20.172C163.415 19.276 163.863 18.52 164.423 17.904C164.997 17.288 165.662 16.819 166.418 16.497C167.188 16.175 168.007 16.014 168.875 16.014C169.743 16.014 170.513 16.189 171.185 16.539C171.857 16.889 172.41 17.295 172.844 17.757L171.542 19.332C171.178 18.968 170.786 18.681 170.366 18.471C169.946 18.247 169.47 18.135 168.938 18.135C168.378 18.135 167.86 18.254 167.384 18.492C166.922 18.716 166.516 19.045 166.166 19.479C165.83 19.899 165.564 20.417 165.368 21.033C165.186 21.649 165.095 22.342 165.095 23.112C165.095 24.68 165.431 25.912 166.103 26.808C166.789 27.69 167.713 28.131 168.875 28.131C169.491 28.131 170.037 28.005 170.513 27.753C170.989 27.487 171.423 27.144 171.815 26.724L173.117 28.257C172.557 28.901 171.913 29.398 171.185 29.748C170.471 30.084 169.673 30.252 168.791 30.252Z" fill="white" />
  <path d="M60.9127 44V37.44H62.5527C63.566 37.44 64.336 37.72 64.8627 38.28C65.3894 38.84 65.6527 39.6433 65.6527 40.69C65.6527 41.21 65.586 41.6767 65.4527 42.09C65.3194 42.4967 65.1227 42.8433 64.8627 43.13C64.6027 43.41 64.2827 43.6267 63.9027 43.78C63.5227 43.9267 63.086 44 62.5927 44H60.9127ZM61.7427 43.32H62.4927C63.2594 43.32 63.8327 43.09 64.2127 42.63C64.5994 42.17 64.7927 41.5233 64.7927 40.69C64.7927 39.8567 64.5994 39.22 64.2127 38.78C63.8327 38.34 63.2594 38.12 62.4927 38.12H61.7427V43.32ZM66.985 44V39.14H67.805V44H66.985ZM67.405 38.14C67.245 38.14 67.1084 38.09 66.995 37.99C66.8884 37.89 66.835 37.7633 66.835 37.61C66.835 37.45 66.8884 37.3233 66.995 37.23C67.1084 37.13 67.245 37.08 67.405 37.08C67.565 37.08 67.6984 37.13 67.805 37.23C67.9184 37.3233 67.975 37.45 67.975 37.61C67.975 37.7633 67.9184 37.89 67.805 37.99C67.6984 38.09 67.565 38.14 67.405 38.14ZM71.086 46.24C70.786 46.24 70.5126 46.21 70.266 46.15C70.0193 46.0967 69.806 46.0133 69.626 45.9C69.4526 45.7867 69.316 45.65 69.216 45.49C69.1226 45.33 69.076 45.1433 69.076 44.93C69.076 44.7233 69.1393 44.5267 69.266 44.34C69.3926 44.1533 69.566 43.9833 69.786 43.83V43.79C69.666 43.7167 69.5626 43.6167 69.476 43.49C69.396 43.3567 69.356 43.1933 69.356 43C69.356 42.7933 69.4126 42.6133 69.526 42.46C69.6393 42.3067 69.7593 42.1867 69.886 42.1V42.06C69.726 41.9267 69.5793 41.75 69.446 41.53C69.3193 41.3033 69.256 41.0433 69.256 40.75C69.256 40.4833 69.3026 40.2433 69.396 40.03C69.496 39.8167 69.6293 39.6367 69.796 39.49C69.9626 39.3367 70.156 39.22 70.376 39.14C70.6026 39.06 70.8393 39.02 71.086 39.02C71.2193 39.02 71.3426 39.0333 71.456 39.06C71.576 39.08 71.6826 39.1067 71.776 39.14H73.466V39.77H72.466C72.5793 39.8833 72.6726 40.0267 72.746 40.2C72.826 40.3733 72.866 40.5633 72.866 40.77C72.866 41.03 72.8193 41.2667 72.726 41.48C72.6326 41.6867 72.506 41.8633 72.346 42.01C72.186 42.15 71.996 42.26 71.776 42.34C71.5626 42.42 71.3326 42.46 71.086 42.46C70.966 42.46 70.8426 42.4467 70.716 42.42C70.5893 42.3867 70.4693 42.3433 70.356 42.29C70.2693 42.3633 70.196 42.4467 70.136 42.54C70.076 42.6267 70.046 42.7367 70.046 42.87C70.046 43.0233 70.106 43.15 70.226 43.25C70.346 43.35 70.5726 43.4 70.906 43.4H71.846C72.4126 43.4 72.836 43.4933 73.116 43.68C73.4026 43.86 73.546 44.1533 73.546 44.56C73.546 44.7867 73.4893 45 73.376 45.2C73.2626 45.4067 73.0993 45.5867 72.886 45.74C72.6726 45.8933 72.4126 46.0133 72.106 46.1C71.806 46.1933 71.466 46.24 71.086 46.24ZM71.086 41.91C71.226 41.91 71.356 41.8833 71.476 41.83C71.6026 41.7767 71.7126 41.7 71.806 41.6C71.906 41.5 71.9826 41.38 72.036 41.24C72.0893 41.0933 72.116 40.93 72.116 40.75C72.116 40.39 72.016 40.1133 71.816 39.92C71.616 39.72 71.3726 39.62 71.086 39.62C70.7993 39.62 70.556 39.72 70.356 39.92C70.156 40.1133 70.056 40.39 70.056 40.75C70.056 40.93 70.0826 41.0933 70.136 41.24C70.1893 41.38 70.2626 41.5 70.356 41.6C70.456 41.7 70.566 41.7767 70.686 41.83C70.8126 41.8833 70.946 41.91 71.086 41.91ZM71.206 45.67C71.4393 45.67 71.6493 45.64 71.836 45.58C72.0293 45.5267 72.1926 45.4533 72.326 45.36C72.4593 45.2733 72.5626 45.17 72.636 45.05C72.7093 44.93 72.746 44.8067 72.746 44.68C72.746 44.4533 72.6626 44.2967 72.496 44.21C72.3293 44.1233 72.086 44.08 71.766 44.08H70.926C70.8326 44.08 70.7293 44.0733 70.616 44.06C70.5093 44.0533 70.4026 44.0333 70.296 44C70.1226 44.1267 69.996 44.26 69.916 44.4C69.836 44.54 69.796 44.68 69.796 44.82C69.796 45.08 69.9193 45.2867 70.166 45.44C70.4193 45.5933 70.766 45.67 71.206 45.67ZM74.485 44V39.14H75.305V44H74.485ZM74.905 38.14C74.745 38.14 74.6084 38.09 74.495 37.99C74.3884 37.89 74.335 37.7633 74.335 37.61C74.335 37.45 74.3884 37.3233 74.495 37.23C74.6084 37.13 74.745 37.08 74.905 37.08C75.065 37.08 75.1984 37.13 75.305 37.23C75.4184 37.3233 75.475 37.45 75.475 37.61C75.475 37.7633 75.4184 37.89 75.305 37.99C75.1984 38.09 75.065 38.14 74.905 38.14ZM78.476 44.12C78.216 44.12 77.996 44.08 77.816 44C77.6426 43.92 77.4993 43.81 77.386 43.67C77.2793 43.53 77.2026 43.36 77.156 43.16C77.1093 42.96 77.086 42.74 77.086 42.5V39.81H76.366V39.19L77.126 39.14L77.226 37.78H77.916V39.14H79.226V39.81H77.916V42.51C77.916 42.81 77.9693 43.0433 78.076 43.21C78.1893 43.37 78.386 43.45 78.666 43.45C78.7526 43.45 78.846 43.4367 78.946 43.41C79.046 43.3833 79.136 43.3533 79.216 43.32L79.376 43.94C79.2426 43.9867 79.096 44.0267 78.936 44.06C78.7826 44.1 78.6293 44.12 78.476 44.12ZM81.23 44.12C80.8234 44.12 80.4834 44 80.21 43.76C79.9434 43.52 79.81 43.18 79.81 42.74C79.81 42.2067 80.0467 41.8 80.52 41.52C80.9934 41.2333 81.75 41.0333 82.79 40.92C82.79 40.7667 82.7734 40.6167 82.74 40.47C82.7134 40.3233 82.6634 40.1933 82.59 40.08C82.5167 39.9667 82.4134 39.8767 82.28 39.81C82.1534 39.7367 81.99 39.7 81.79 39.7C81.51 39.7 81.2467 39.7533 81 39.86C80.7534 39.9667 80.5334 40.0867 80.34 40.22L80.02 39.65C80.2467 39.5033 80.5234 39.3633 80.85 39.23C81.1767 39.09 81.5367 39.02 81.93 39.02C82.5234 39.02 82.9534 39.2033 83.22 39.57C83.4867 39.93 83.62 40.4133 83.62 41.02V44H82.94L82.87 43.42H82.84C82.6067 43.6133 82.3567 43.78 82.09 43.92C81.8234 44.0533 81.5367 44.12 81.23 44.12ZM81.47 43.46C81.7034 43.46 81.9234 43.4067 82.13 43.3C82.3367 43.1867 82.5567 43.0233 82.79 42.81V41.46C82.3834 41.5133 82.04 41.5767 81.76 41.65C81.4867 41.7233 81.2634 41.81 81.09 41.91C80.9234 42.01 80.8 42.1267 80.72 42.26C80.6467 42.3867 80.61 42.5267 80.61 42.68C80.61 42.96 80.6934 43.16 80.86 43.28C81.0267 43.4 81.23 43.46 81.47 43.46ZM86.0191 44.12C85.7058 44.12 85.4824 44.0267 85.3491 43.84C85.2158 43.6533 85.1491 43.38 85.1491 43.02V36.88H85.9691V43.08C85.9691 43.2133 85.9924 43.3067 86.0391 43.36C86.0858 43.4133 86.1391 43.44 86.1991 43.44C86.2258 43.44 86.2491 43.44 86.2691 43.44C86.2958 43.44 86.3324 43.4333 86.3791 43.42L86.4891 44.04C86.4358 44.0667 86.3724 44.0867 86.2991 44.1C86.2258 44.1133 86.1324 44.12 86.0191 44.12ZM89.7799 44V37.44H91.6499C92.0165 37.44 92.3499 37.4733 92.6499 37.54C92.9565 37.6067 93.2165 37.7167 93.4299 37.87C93.6432 38.0167 93.8099 38.2133 93.9299 38.46C94.0499 38.7067 94.1099 39.01 94.1099 39.37C94.1099 39.7167 94.0499 40.0167 93.9299 40.27C93.8165 40.5233 93.6532 40.7333 93.4399 40.9C93.2265 41.0667 92.9699 41.1933 92.6699 41.28C92.3765 41.36 92.0499 41.4 91.6899 41.4H90.6099V44H89.7799ZM90.6099 40.72H91.5899C92.1632 40.72 92.5865 40.6133 92.8599 40.4C93.1399 40.18 93.2799 39.8367 93.2799 39.37C93.2799 38.8967 93.1332 38.57 92.8399 38.39C92.5532 38.2033 92.1232 38.11 91.5499 38.11H90.6099V40.72ZM96.2339 44.12C95.9206 44.12 95.6973 44.0267 95.5639 43.84C95.4306 43.6533 95.3639 43.38 95.3639 43.02V36.88H96.1839V43.08C96.1839 43.2133 96.2073 43.3067 96.2539 43.36C96.3006 43.4133 96.3539 43.44 96.4139 43.44C96.4406 43.44 96.4639 43.44 96.4839 43.44C96.5106 43.44 96.5473 43.4333 96.5939 43.42L96.7039 44.04C96.6506 44.0667 96.5873 44.0867 96.5139 44.1C96.4406 44.1133 96.3473 44.12 96.2339 44.12ZM99.0328 44.12C98.6261 44.12 98.2861 44 98.0128 43.76C97.7461 43.52 97.6128 43.18 97.6128 42.74C97.6128 42.2067 97.8494 41.8 98.3228 41.52C98.7961 41.2333 99.5528 41.0333 100.593 40.92C100.593 40.7667 100.576 40.6167 100.543 40.47C100.516 40.3233 100.466 40.1933 100.393 40.08C100.319 39.9667 100.216 39.8767 100.083 39.81C99.9561 39.7367 99.7928 39.7 99.5928 39.7C99.3128 39.7 99.0494 39.7533 98.8028 39.86C98.5561 39.9667 98.3361 40.0867 98.1428 40.22L97.8228 39.65C98.0494 39.5033 98.3261 39.3633 98.6528 39.23C98.9794 39.09 99.3394 39.02 99.7328 39.02C100.326 39.02 100.756 39.2033 101.023 39.57C101.289 39.93 101.423 40.4133 101.423 41.02V44H100.743L100.673 43.42H100.643C100.409 43.6133 100.159 43.78 99.8928 43.92C99.6261 44.0533 99.3394 44.12 99.0328 44.12ZM99.2728 43.46C99.5061 43.46 99.7261 43.4067 99.9328 43.3C100.139 43.1867 100.359 43.0233 100.593 42.81V41.46C100.186 41.5133 99.8428 41.5767 99.5628 41.65C99.2894 41.7233 99.0661 41.81 98.8928 41.91C98.7261 42.01 98.6028 42.1267 98.5228 42.26C98.4494 42.3867 98.4128 42.5267 98.4128 42.68C98.4128 42.96 98.4961 43.16 98.6628 43.28C98.8294 43.4 99.0328 43.46 99.2728 43.46ZM104.345 44.12C104.085 44.12 103.865 44.08 103.685 44C103.512 43.92 103.368 43.81 103.255 43.67C103.148 43.53 103.072 43.36 103.025 43.16C102.978 42.96 102.955 42.74 102.955 42.5V39.81H102.235V39.19L102.995 39.14L103.095 37.78H103.785V39.14H105.095V39.81H103.785V42.51C103.785 42.81 103.838 43.0433 103.945 43.21C104.058 43.37 104.255 43.45 104.535 43.45C104.622 43.45 104.715 43.4367 104.815 43.41C104.915 43.3833 105.005 43.3533 105.085 43.32L105.245 43.94C105.112 43.9867 104.965 44.0267 104.805 44.06C104.652 44.1 104.498 44.12 104.345 44.12ZM106.334 44V39.81H105.674V39.19L106.334 39.14V38.37C106.334 37.87 106.447 37.4767 106.674 37.19C106.907 36.9033 107.267 36.76 107.754 36.76C107.907 36.76 108.051 36.7767 108.184 36.81C108.324 36.8367 108.451 36.8733 108.564 36.92L108.384 37.55C108.204 37.47 108.021 37.43 107.834 37.43C107.381 37.43 107.154 37.7433 107.154 38.37V39.14H108.184V39.81H107.154V44H106.334ZM110.906 44.12C110.606 44.12 110.32 44.0633 110.046 43.95C109.78 43.8367 109.543 43.6733 109.336 43.46C109.13 43.24 108.963 42.9733 108.836 42.66C108.716 42.34 108.656 41.98 108.656 41.58C108.656 41.1733 108.716 40.8133 108.836 40.5C108.963 40.18 109.13 39.91 109.336 39.69C109.543 39.47 109.78 39.3033 110.046 39.19C110.32 39.0767 110.606 39.02 110.906 39.02C111.206 39.02 111.49 39.0767 111.756 39.19C112.03 39.3033 112.27 39.47 112.476 39.69C112.683 39.91 112.846 40.18 112.966 40.5C113.093 40.8133 113.156 41.1733 113.156 41.58C113.156 41.98 113.093 42.34 112.966 42.66C112.846 42.9733 112.683 43.24 112.476 43.46C112.27 43.6733 112.03 43.8367 111.756 43.95C111.49 44.0633 111.206 44.12 110.906 44.12ZM110.906 43.44C111.113 43.44 111.303 43.3967 111.476 43.31C111.65 43.2167 111.796 43.09 111.916 42.93C112.043 42.7633 112.14 42.5667 112.206 42.34C112.273 42.1133 112.306 41.86 112.306 41.58C112.306 41.3 112.273 41.0467 112.206 40.82C112.14 40.5867 112.043 40.3867 111.916 40.22C111.796 40.0533 111.65 39.9267 111.476 39.84C111.303 39.7467 111.113 39.7 110.906 39.7C110.7 39.7 110.51 39.7467 110.336 39.84C110.163 39.9267 110.013 40.0533 109.886 40.22C109.766 40.3867 109.673 40.5867 109.606 40.82C109.54 41.0467 109.506 41.3 109.506 41.58C109.506 41.86 109.54 42.1133 109.606 42.34C109.673 42.5667 109.766 42.7633 109.886 42.93C110.013 43.09 110.163 43.2167 110.336 43.31C110.51 43.3967 110.7 43.44 110.906 43.44ZM114.436 44V39.14H115.116L115.186 40.02H115.216C115.383 39.7133 115.583 39.47 115.816 39.29C116.056 39.11 116.316 39.02 116.596 39.02C116.79 39.02 116.963 39.0533 117.116 39.12L116.956 39.84C116.876 39.8133 116.803 39.7933 116.736 39.78C116.67 39.7667 116.586 39.76 116.486 39.76C116.28 39.76 116.063 39.8433 115.836 40.01C115.616 40.1767 115.423 40.4667 115.256 40.88V44H114.436ZM117.903 44V39.14H118.583L118.653 39.84H118.683C118.896 39.6067 119.126 39.4133 119.373 39.26C119.626 39.1 119.9 39.02 120.193 39.02C120.566 39.02 120.856 39.1033 121.063 39.27C121.276 39.43 121.433 39.6567 121.533 39.95C121.786 39.67 122.04 39.4467 122.293 39.28C122.553 39.1067 122.833 39.02 123.133 39.02C123.633 39.02 124.003 39.18 124.243 39.5C124.49 39.82 124.613 40.2933 124.613 40.92V44H123.793V41.03C123.793 40.57 123.72 40.24 123.573 40.04C123.426 39.8333 123.2 39.73 122.893 39.73C122.526 39.73 122.12 39.98 121.673 40.48V44H120.853V41.03C120.853 40.57 120.78 40.24 120.633 40.04C120.486 39.8333 120.256 39.73 119.943 39.73C119.576 39.73 119.17 39.98 118.723 40.48V44H117.903Z" fill="white" />
</svg>
  