<svg width="218" height="60" viewBox="0 0 218 60" fill="none" xmlns="http://www.w3.org/2000/svg">
<rect width="218" height="60" fill="#303240"/>
<path d="M61.743 37V23.266H66.132C67.084 23.266 67.924 23.371 68.652 23.581C69.394 23.791 69.975 24.148 70.395 24.652C70.829 25.142 71.046 25.807 71.046 26.647C71.046 27.291 70.878 27.9 70.542 28.474C70.206 29.034 69.737 29.419 69.135 29.629V29.713C69.891 29.881 70.514 30.238 71.004 30.784C71.508 31.316 71.76 32.044 71.76 32.968C71.76 33.878 71.529 34.634 71.067 35.236C70.619 35.838 69.996 36.286 69.198 36.58C68.4 36.86 67.497 37 66.489 37H61.743ZM64.179 28.936H65.922C66.874 28.936 67.567 28.761 68.001 28.411C68.435 28.061 68.652 27.592 68.652 27.004C68.652 26.332 68.428 25.856 67.98 25.576C67.532 25.296 66.86 25.156 65.964 25.156H64.179V28.936ZM64.179 35.11H66.237C67.245 35.11 68.022 34.928 68.568 34.564C69.114 34.186 69.387 33.612 69.387 32.842C69.387 32.114 69.121 31.589 68.589 31.267C68.057 30.931 67.273 30.763 66.237 30.763H64.179V35.11ZM77.0873 29.692L76.6043 31.372H80.1113L79.6283 29.692C79.4043 28.964 79.1873 28.215 78.9773 27.445C78.7813 26.675 78.5853 25.912 78.3893 25.156H78.3053C78.1233 25.926 77.9273 26.696 77.7173 27.466C77.5213 28.222 77.3113 28.964 77.0873 29.692ZM72.4883 37L76.9613 23.266H79.8173L84.2903 37H81.7283L80.6573 33.283H76.0373L74.9663 37H72.4883ZM85.9832 37V23.266H89.6582C91.7582 23.266 93.3962 23.833 94.5722 24.967C95.7482 26.101 96.3362 27.802 96.3362 30.07C96.3362 32.352 95.7552 34.081 94.5932 35.257C93.4312 36.419 91.8282 37 89.7842 37H85.9832ZM88.4192 35.026H89.4902C90.8762 35.026 91.9472 34.627 92.7032 33.829C93.4592 33.017 93.8372 31.764 93.8372 30.07C93.8372 28.39 93.4592 27.165 92.7032 26.395C91.9472 25.625 90.8762 25.24 89.4902 25.24H88.4192V35.026ZM104.862 37.252C103.63 37.252 102.524 36.979 101.544 36.433C100.564 35.887 99.7942 35.089 99.2342 34.039C98.6742 32.975 98.3942 31.687 98.3942 30.175C98.3942 28.677 98.6812 27.396 99.2552 26.332C99.8292 25.254 100.606 24.435 101.586 23.875C102.566 23.301 103.665 23.014 104.883 23.014C105.863 23.014 106.689 23.196 107.361 23.56C108.047 23.91 108.607 24.309 109.041 24.757L107.739 26.332C107.389 25.996 106.997 25.716 106.563 25.492C106.143 25.254 105.611 25.135 104.967 25.135C103.749 25.135 102.762 25.583 102.006 26.479C101.264 27.361 100.893 28.572 100.893 30.112C100.893 31.68 101.25 32.912 101.964 33.808C102.678 34.69 103.721 35.131 105.093 35.131C105.485 35.131 105.856 35.082 106.206 34.984C106.556 34.872 106.843 34.718 107.067 34.522V31.561H104.463V29.566H109.251V35.614C108.789 36.076 108.173 36.468 107.403 36.79C106.647 37.098 105.8 37.252 104.862 37.252ZM112.295 37V23.266H120.569V25.324H114.731V28.831H119.666V30.889H114.731V34.942H120.779V37H112.295ZM123.595 37V23.266H128.236C129.188 23.266 130.042 23.392 130.798 23.644C131.568 23.896 132.17 24.323 132.604 24.925C133.052 25.513 133.276 26.318 133.276 27.34C133.276 28.39 133.024 29.237 132.52 29.881C132.03 30.525 131.372 30.987 130.546 31.267L133.822 37H131.092L128.131 31.624H126.031V37H123.595ZM126.031 29.692H127.984C128.922 29.692 129.636 29.496 130.126 29.104C130.63 28.698 130.882 28.11 130.882 27.34C130.882 26.556 130.63 26.01 130.126 25.702C129.636 25.38 128.922 25.219 127.984 25.219H126.031V29.692ZM136.022 37V23.266H139.697C141.797 23.266 143.435 23.833 144.611 24.967C145.787 26.101 146.375 27.802 146.375 30.07C146.375 32.352 145.794 34.081 144.632 35.257C143.47 36.419 141.867 37 139.823 37H136.022ZM138.458 35.026H139.529C140.915 35.026 141.986 34.627 142.742 33.829C143.498 33.017 143.876 31.764 143.876 30.07C143.876 28.39 143.498 27.165 142.742 26.395C141.986 25.625 140.915 25.24 139.529 25.24H138.458V35.026ZM154.481 37.252C153.291 37.252 152.241 36.965 151.331 36.391C150.421 35.803 149.707 34.977 149.189 33.913C148.685 32.835 148.433 31.554 148.433 30.07C148.433 28.586 148.685 27.319 149.189 26.269C149.707 25.219 150.421 24.414 151.331 23.854C152.241 23.294 153.291 23.014 154.481 23.014C155.685 23.014 156.742 23.294 157.652 23.854C158.562 24.414 159.269 25.219 159.773 26.269C160.291 27.319 160.55 28.586 160.55 30.07C160.55 31.554 160.291 32.835 159.773 33.913C159.269 34.977 158.562 35.803 157.652 36.391C156.742 36.965 155.685 37.252 154.481 37.252ZM154.481 35.131C155.559 35.131 156.42 34.676 157.064 33.766C157.708 32.842 158.03 31.61 158.03 30.07C158.03 28.53 157.708 27.326 157.064 26.458C156.42 25.576 155.559 25.135 154.481 25.135C153.403 25.135 152.542 25.576 151.898 26.458C151.254 27.326 150.932 28.53 150.932 30.07C150.932 31.61 151.254 32.842 151.898 33.766C152.542 34.676 153.403 35.131 154.481 35.131ZM168.779 37.252C167.631 37.252 166.588 36.979 165.65 36.433C164.712 35.887 163.963 35.089 163.403 34.039C162.857 32.975 162.584 31.687 162.584 30.175C162.584 28.677 162.864 27.396 163.424 26.332C163.998 25.254 164.761 24.435 165.713 23.875C166.665 23.301 167.715 23.014 168.863 23.014C169.731 23.014 170.501 23.189 171.173 23.539C171.845 23.889 172.398 24.295 172.832 24.757L171.53 26.332C171.18 25.968 170.788 25.681 170.354 25.471C169.934 25.247 169.458 25.135 168.926 25.135C168.184 25.135 167.519 25.338 166.931 25.744C166.357 26.136 165.902 26.703 165.566 27.445C165.244 28.187 165.083 29.076 165.083 30.112C165.083 31.68 165.426 32.912 166.112 33.808C166.798 34.69 167.715 35.131 168.863 35.131C169.479 35.131 170.025 35.005 170.501 34.753C170.977 34.487 171.411 34.144 171.803 33.724L173.105 35.257C172.545 35.901 171.901 36.398 171.173 36.748C170.459 37.084 169.661 37.252 168.779 37.252Z" fill="white"/>
<path d="M39.1795 45.7514L51.2619 29.022C51.7129 28.3975 51.7652 27.5695 51.3963 26.8933L47.5444 19.8314L47.8355 19.0638C48.3279 17.5675 47.8613 15.3771 46 15.0001C44.0995 14.6152 43.0434 15.819 42.4338 17H35H27.5663C26.9568 15.8189 25.9006 14.6149 24 14.9999C22.1387 15.3769 21.6721 17.5672 22.1645 19.0635L22.4557 19.8313L18.6037 26.8933C18.2348 27.5695 18.2871 28.3975 18.7381 29.022L30.8205 45.7514C30.8771 45.8299 31.0105 45.7923 31.0207 45.6961C31.0627 45.3007 31.1896 44.5772 31.5733 43.8745C31.8695 43.332 32.3187 42.8018 33.0001 42.4445C33.5199 42.1719 34.1749 42 35 42C35.8252 42 36.4801 42.1719 36.9999 42.4445C37.6813 42.8018 38.1306 43.332 38.4268 43.8746C38.81 44.5765 38.937 45.299 38.9791 45.6947C38.9894 45.7909 39.1229 45.8299 39.1795 45.7514Z" fill="black"/>
<path d="M46 14.9999C47.8613 15.3769 48.3279 17.5672 47.8355 19.0635L44.8258 27H45.8953L48.7784 19.3973L48.7854 19.3761C49.0981 18.4257 49.1088 17.2717 48.7388 16.2665C48.358 15.232 47.5389 14.2913 46.1985 14.0198C44.5918 13.6943 43.3812 14.2594 42.5455 15.1156C41.9815 15.6935 41.594 16.3946 41.3256 17H37.9999C36.8953 17 35.9999 17.8954 35.9999 19L36 27H37L36.9999 19C36.9999 18.4477 37.4476 18 37.9999 18H41.9999C42.4924 16.6699 43.5374 14.5011 46 14.9999Z" fill="white"/>
<path d="M23.9998 14.9999C22.1384 15.3769 21.6719 17.5672 22.1643 19.0635L25.1739 27H24.1044L21.2213 19.3973L21.2144 19.3761C20.9016 18.4257 20.8909 17.2717 21.2609 16.2665C21.6417 15.232 22.4608 14.2913 23.8012 14.0198C25.408 13.6943 26.6186 14.2594 27.4542 15.1156C28.0182 15.6935 28.4057 16.3946 28.6741 17H31.9998C33.1044 17 33.9998 17.8954 33.9998 19L34 27H33L32.9998 19C32.9998 18.4477 32.5521 18 31.9998 18H27.9998C27.5073 16.6699 26.4624 14.5011 23.9998 14.9999Z" fill="white"/>
<path d="M42.3691 14.5906C43.2997 13.7301 44.6151 13.1892 46.2979 13.53L46.5811 13.5974C47.9595 13.9797 48.8078 15.0073 49.208 16.0945L49.2803 16.3054C49.5938 17.2981 49.5872 18.3902 49.3213 19.3328L49.2607 19.533L49.2529 19.5535L49.25 19.5642L49.2461 19.575L48.7236 20.95L51.835 26.6541L51.916 26.8142C52.262 27.5731 52.2063 28.4564 51.7676 29.1658L51.667 29.3152L39.585 46.0437C39.4096 46.2866 39.1276 46.3269 38.9277 46.2712C38.7538 46.2228 38.5667 46.0816 38.502 45.8523L38.4824 45.7488C38.4367 45.3182 38.2821 44.4924 37.7842 43.7859C37.3064 43.108 36.487 42.4998 35 42.4998C33.513 42.4998 32.6936 43.108 32.2158 43.7859C31.7801 44.4042 31.608 45.1139 31.541 45.5701L31.5176 45.7488C31.4867 46.0395 31.271 46.2159 31.0723 46.2712C30.8974 46.32 30.6595 46.2954 30.4854 46.1257L30.415 46.0437L18.333 29.3152C17.7693 28.5346 17.704 27.4994 18.165 26.6541L21.2754 20.949L20.7539 19.575L20.75 19.5642L20.7471 19.5535L20.7393 19.532C20.3934 18.4806 20.3809 17.2103 20.792 16.0935L20.8779 15.8777C21.3382 14.801 22.2524 13.8237 23.7021 13.53L24.0342 13.4734C25.6679 13.2477 26.9334 13.8657 27.8125 14.7664L28.0215 14.9939C28.4421 15.4785 28.7559 16.0136 28.9922 16.4998H41.0078C41.2817 15.9362 41.66 15.3068 42.1875 14.7664L42.3691 14.5906Z" stroke="black"/>
<path fill-rule="evenodd" clip-rule="evenodd" d="M31.9999 18H27.9999C27.8875 17.6965 27.7463 17.3492 27.5661 17H34.9999H42.4338C42.2536 17.3492 42.1124 17.6965 42 18H38C37.4477 18 37 18.4478 37 19V42.4446C36.4801 42.172 35.8252 42 34.9999 42C34.1747 42 33.5198 42.172 32.9999 42.4446V19C32.9999 18.4477 32.5522 18 31.9999 18ZM31.5731 43.8747L22.4555 19.8314L18.6036 26.8933C18.2347 27.5695 18.287 28.3975 18.738 29.022L30.8204 45.7514C30.8771 45.8299 31.0104 45.7923 31.0206 45.6961C31.0626 45.3007 31.1895 44.5773 31.5731 43.8747ZM38.9792 45.6961C38.9373 45.3007 38.8104 44.5774 38.4268 43.8747L47.5444 19.8315L51.3963 26.8933C51.7651 27.5695 51.7128 28.3975 51.2618 29.022L39.1795 45.7514C39.1228 45.8299 38.9894 45.7923 38.9792 45.6961Z" fill="white"/>
<path d="M32.496 46.3689C32.4972 46.1616 32.5042 45.877 32.5363 45.6745C32.5926 45.3181 32.728 44.7956 33.0335 44.3621C33.1906 44.1393 33.3977 43.9302 33.695 43.774C33.993 43.6174 34.408 43.5 35.0003 43.5C35.5925 43.5 36.0076 43.6174 36.3056 43.774C36.6028 43.9302 36.81 44.1393 36.967 44.3621C37.2726 44.7956 37.4079 45.3181 37.4643 45.6745C37.4963 45.877 37.5034 46.1616 37.5045 46.3689C37.5054 46.5237 37.3788 46.6478 37.224 46.6478L32.7765 46.6478C32.6218 46.6478 32.4952 46.5237 32.496 46.3689Z" fill="black"/>
</svg>
