<svg xmlns="http://www.w3.org/2000/svg" xmlns:xlink="http://www.w3.org/1999/xlink" viewBox="0 0 557.97 453.55"><defs><style>.cls-1,.cls-10,.cls-12,.cls-4{fill:none;}.cls-2{fill:#f5f6fa;}.cls-3{fill:#b5e6ff;}.cls-4{stroke:#fff;}.cls-10,.cls-12,.cls-4,.cls-5,.cls-7{stroke-linecap:round;stroke-linejoin:round;}.cls-10,.cls-4,.cls-5,.cls-7{stroke-width:2px;}.cls-13,.cls-5{fill:#9bdeff;}.cls-10,.cls-12,.cls-5,.cls-7{stroke:#1d1e26;}.cls-6{clip-path:url(#clip-path);}.cls-11,.cls-7{fill:#fff;}.cls-8{fill:#1d1e26;}.cls-9{fill:#008ace;}.cls-12{stroke-width:4px;}</style><clipPath id="clip-path"><path class="cls-1" d="M208.4,54.5h211.9a13,13,0,0,1,13,13v223.9a12,12,0,0,1-12,12H209.4a13,13,0,0,1-13-13V66.54A12,12,0,0,1,208.4,54.5Z"/></clipPath></defs><g id="Layer_2" data-name="Layer 2"><g id="S_No_items_found" data-name="S_No items found"><path class="cls-2" d="M362.58,3.71C118.25-27.78,65.08,149.36,109.17,235.58c25.57,50-95.8,171.08,42.88,196.88,66.55,12.38,87-32.24,150.88-25.75C388.48,415.41,661,395.28,516.44,216,439.8,120.94,518.92,23.86,362.58,3.71Z"/><path class="cls-3" d="M139,329.9l-1.58,10.24-3.07-13a142.38,142.38,0,0,0-27.7-12l-.2,13.62-6.15-15.45a133.15,133.15,0,0,0-33-4.48L69,323.76,60.89,309a107.51,107.51,0,0,0-29.47,5.48L37.05,323s-5.25-3.86-9.87-7A99,99,0,0,0,1,331.19a206.61,206.61,0,0,0,30.39,25.44c6-1.54,12.39-3.09,12.39-3.09l-7.88,6.13A167.56,167.56,0,0,0,68,376.26c5.67-3.27,13.09-7.9,13.09-7.9l-8.59,9.5a102,102,0,0,0,37.34,5.7l10.29-10.18-4.1,9.67c16.92-2.05,34.18-9.43,50.63-25C162.74,348.7,152.72,338.54,139,329.9Z"/><line class="cls-4" x1="1" y1="331.19" x2="166.66" y2="358.06"/><path class="cls-5" d="M421.31,303.5H208.4c-6.65,0-13-5.4-13-12.05V66.54c0-6.65,6.39-12,13-12H421.31c6.65,0,13.05,5.39,13.05,12V291.45C434.36,298.1,428,303.5,421.31,303.5Z"/><g class="cls-6"><line class="cls-4" x1="168.1" y1="240.55" x2="291.06" y2="362.55"/><line class="cls-4" x1="175.04" y1="69.55" x2="328.74" y2="386.55"/><line class="cls-4" x1="143.31" y1="286.55" x2="342.63" y2="16.55"/><line class="cls-4" x1="476.5" y1="146.55" x2="291.06" y2="386.55"/><line class="cls-4" x1="462.61" y1="105.55" x2="143.31" y2="327.55"/><line class="cls-4" x1="221.65" y1="28.55" x2="534.01" y2="318.55"/><line class="cls-4" x1="407.08" y1="386.55" x2="180.99" y2="7.55"/><line class="cls-4" x1="302.96" y1="1.55" x2="476.5" y2="201.55"/><line class="cls-4" x1="162.15" y1="182.55" x2="540.95" y2="352.55"/><line class="cls-4" x1="383.28" y1="22.55" x2="242.47" y2="452.55"/></g><path class="cls-7" d="M434.36,74.5h-239v-9a12,12,0,0,1,12-12H422.31a12,12,0,0,1,12.05,12Z"/><circle class="cls-8" cx="209.7" cy="63.84" r="4.35"/><circle class="cls-8" cx="224.86" cy="63.84" r="4.35"/><circle class="cls-8" cx="240.01" cy="63.84" r="4.35"/><rect class="cls-7" x="140.35" y="115.53" width="237" height="249" rx="12.05"/><path class="cls-9" d="M378.35,135.53h-239v-9a12.05,12.05,0,0,1,12.05-12H366.3a12.06,12.06,0,0,1,12.05,12Z"/><circle class="cls-8" cx="154.7" cy="124.88" r="4.35"/><circle class="cls-8" cx="169.85" cy="124.88" r="4.35"/><circle class="cls-8" cx="185" cy="124.88" r="4.35"/><line class="cls-10" x1="117.69" y1="87.89" x2="134.62" y2="105.89"/><line class="cls-10" x1="113.12" y1="106.89" x2="128.27" y2="114.39"/><line class="cls-10" x1="435.86" y1="39.55" x2="442.86" y2="23.55"/><line class="cls-10" x1="442.86" y1="44.55" x2="462.86" y2="24.55"/><line class="cls-10" x1="447.86" y1="52.55" x2="462.86" y2="46.55"/><line class="cls-10" x1="440.86" y1="133.55" x2="440.86" y2="274.55"/><circle class="cls-9" cx="320.98" cy="280.2" r="101.5"/><circle class="cls-11" cx="320.98" cy="280.2" r="81.5"/><circle class="cls-8" cx="282.17" cy="265.25" r="9.2"/><circle class="cls-8" cx="359.8" cy="265.25" r="9.2"/><path class="cls-12" d="M294,311.61c5.09-8.29,15.27-14.06,27-14.06s22,5.71,27,14.06"/><rect class="cls-8" x="389.27" y="342.79" width="30.26" height="5.16" transform="translate(-117.92 445.4) rotate(-51.34)"/><path class="cls-13" d="M483.87,394.75c1.4,5.18-8.05,16.56-13.42,16.77-17,.67-69.43-57.79-69.43-57.79l10.73-13.42S479.71,379.32,483.87,394.75Z"/><circle class="cls-13" cx="492.69" cy="416.04" r="15.04"/><path class="cls-8" d="M481,406.65a14.92,14.92,0,0,1,8-5.15l-5.13-4.1c-1.12,5-7.15,12.07-11.69,13.75l5.55,4.44A14.92,14.92,0,0,1,481,406.65Z"/><path class="cls-9" d="M173.53,334.26l-8.46,7.14,6.58-12.85a162.88,162.88,0,0,0-14.4-30.23l-9.7,10.91,5.75-17.1a153.17,153.17,0,0,0-24-28.06l-9,13.41,3.72-18a121.21,121.21,0,0,0-28.1-17.35l-1.37,11.13s-1.63-7-3.22-13a107.83,107.83,0,0,0-32.18-7,233.7,233.7,0,0,0,7.21,43.15c6,3.17,12.37,6.65,12.37,6.65l-10.78-.84A192,192,0,0,0,82.67,319.4c7,1.54,16.3,3.27,16.3,3.27L85.25,324c6.94,12,15.69,23.2,26.75,32.26l15.59-.65-10.13,4.81c15.36,10.85,34.73,17.64,59.16,17.17C180,367.12,178.8,351.45,173.53,334.26Z"/><line class="cls-4" x1="59.06" y1="233.22" x2="176.62" y2="377.62"/></g></g></svg>