<svg width="16" height="16" viewBox="0 0 16 16" fill="none" xmlns="http://www.w3.org/2000/svg">
    <path d="M0.454381 12.5L10.2498 2.70462C10.4641 2.5001 10.7489 2.38598 11.0451 2.38598C11.3414 2.38598 11.6262 2.5001 11.8405 2.70462L13.2951 4.15925C13.5058 4.37036 13.6241 4.65641 13.6241 4.95462C13.6241 5.25284 13.5058 5.53889 13.2951 5.75L3.50032 15.5454C3.2892 15.756 3.00316 15.8743 2.70494 15.8743C2.40672 15.8743 2.12068 15.756 1.90957 15.5454L0.454381 14.0907C0.243476 13.8798 0.124996 13.5937 0.124996 13.2954C0.124996 12.9971 0.243476 12.711 0.454381 12.5ZM12.4998 4.95462L11.0451 3.5L8.23263 6.3125L9.68782 7.76769L12.5003 4.95519L12.4998 4.95462ZM15.8748 8L14.7498 6.875L13.6248 8L14.7498 9.125L15.8748 8ZM9.12476 1.25L7.99976 0.125L6.87476 1.25L7.99976 2.375L9.12476 1.25ZM15.8748 1.25L14.7498 0.125L13.6248 1.25L14.7498 2.375L15.8748 1.25Z" fill="white"/>
</svg>
